<?xml version="1.0" encoding="utf-8"?>
<!-- Generator: Adobe Illustrator 18.1.1, SVG Export Plug-In . SVG Version: 6.00 Build 0)  -->
<svg version="1.1" id="Layer_1" xmlns="http://www.w3.org/2000/svg" xmlns:xlink="http://www.w3.org/1999/xlink" x="0px" y="0px"
	 viewBox="0 0 290 290" enable-background="new 0 0 290 290" xml:space="preserve">
<circle fill-rule="evenodd" clip-rule="evenodd" fill="#BEE1F5" cx="145" cy="145" r="135"/>
<g>
	<g>
		<g>
			<path fill-rule="evenodd" clip-rule="evenodd" fill="#FFFFFF" d="M201.9,94.6c0-0.3-0.3-0.6-0.7-0.7l-56.2-9l-56.2,9
				c-0.4,0.1-0.7,0.3-0.7,0.7c-0.1,21.2,0.3,37.3,1,44.3c2.8,29,8.6,40.8,19.6,54.8c12.8,16.2,31.5,20.5,36.3,21.3
				c4.7-0.8,23.5-5.1,36.3-21.3c11-14,16.8-25.8,19.6-54.8C201.6,131.9,202,115.8,201.9,94.6z"/>
		</g>
	</g>
	<g>
		<g>
			<g>
				<path fill-rule="evenodd" clip-rule="evenodd" fill="#6CB74C" d="M210,96.6c0-5.1-3.8-9.3-9-10.1l-56-8.9l-56,8.9
					c-5.2,0.8-9,5.1-9,10.1c0,12.2,0,34.1,1,43.7c2.7,27.9,8.3,41.8,21,57.8c17.2,21.8,43,24.5,43,24.5s25.9-2.7,43-24.5
					c12.6-16,18.2-29.9,21-57.8C210,130.6,210,108.8,210,96.6z M199,139.3c-2.7,28-8.3,39.4-19,52.9c-12.4,15.7-30.5,19.8-35.1,20.6
					c-4.7-0.8-22.7-4.9-35.1-20.6c-10.7-13.5-16.2-24.9-19-52.9c-0.7-6.7-1-22.3-0.9-42.8c0-0.3,0.3-0.6,0.7-0.6l54.3-8.7l54.3,8.7
					c0.4,0.1,0.7,0.3,0.7,0.6C200,116.9,199.7,132.5,199,139.3z M95.9,138.8c2.6,27.1,7.7,37.5,18,50.5
					c10.5,13.4,25.5,17.5,31.1,18.6V92l-50,8C95,118.6,95.3,132.6,95.9,138.8z"/>
			</g>
		</g>
	</g>
</g>
</svg>
