<?xml version="1.0" encoding="utf-8"?>
<!-- Generator: Adobe Illustrator 19.0.0, SVG Export Plug-In . SVG Version: 6.00 Build 0)  -->
<svg version="1.1" id="Layer_1" xmlns="http://www.w3.org/2000/svg" xmlns:xlink="http://www.w3.org/1999/xlink" x="0px" y="0px"
	 viewBox="-474.8 326.3 742.9 141.4" style="enable-background:new -474.8 326.3 742.9 141.4;" xml:space="preserve">
<style type="text/css">
	.st0{fill:#FFFFFF;}
	.st1{fill:#1E92CE;}
	.st2{fill:#652562;}
	.st3{fill:#6CB74C;}
	.st4{clip-path:url(#SVGID_2_);fill:#1E92CE;}
	.st5{clip-path:url(#SVGID_4_);}
</style>
<g>
	<path class="st0" d="M-360.1,360.4c0-5.5,1.6-10.6,4.4-14.9c-12.6-11.9-29.6-19.2-48.4-19.2c-39,0-70.7,31.6-70.7,70.7
		s31.6,70.7,70.7,70.7s70.7-31.6,70.7-70.7c0-3-0.2-6-0.6-8.9C-348.6,387.2-360.1,375.1-360.1,360.4z"/>
	<path class="st1" d="M-396.1,369.3h-16.2l1.9,35.2h12.4L-396.1,369.3z M-410,422.8c1.4,1.3,3.3,1.9,5.8,1.9c2.4,0,4.3-0.6,5.7-1.9
		c1.4-1.3,2-3,2-5.2c0-2.3-0.7-4-2-5.3c-1.3-1.3-3.2-1.9-5.8-1.9c-2.6,0-4.5,0.6-5.9,1.9c-1.3,1.3-2,3-2,5.3
		C-412.1,419.8-411.4,421.5-410,422.8z"/>
	<path class="st2" d="M-404.1,351.6c-25,0-45.4,20.3-45.4,45.4c0,25,20.3,45.4,45.4,45.4s45.4-20.3,45.4-45.4
		C-358.8,372-379.1,351.6-404.1,351.6z M-368,397c0,8.1-2.7,15.5-7.1,21.5l-50.6-50.5c6-4.5,13.5-7.1,21.5-7.1
		C-384.2,360.9-368,377.1-368,397z M-440.3,397c0-8.5,3-16.4,8-22.6l50.8,50.8c-6.2,5-14.1,8-22.6,8
		C-424.1,433.1-440.3,416.9-440.3,397z"/>
	<g>
		<circle class="st3" cx="-332.4" cy="360.4" r="20.8"/>
		<path class="st0" d="M-323.6,357.4c0-0.3-0.1-0.6-0.3-0.8l-1.5-1.5c-0.2-0.2-0.5-0.3-0.8-0.3c-0.3,0-0.6,0.1-0.8,0.3l-7.4,7.3
			l-3.3-3.3c-0.2-0.2-0.5-0.3-0.8-0.3c-0.3,0-0.6,0.1-0.8,0.3l-1.5,1.5c-0.2,0.2-0.3,0.5-0.3,0.8c0,0.3,0.1,0.6,0.3,0.8l4.1,4
			l1.5,1.5c0.2,0.2,0.5,0.3,0.8,0.3c0.3,0,0.6-0.1,0.8-0.3l1.5-1.5l8.2-8.1C-323.8,357.9-323.6,357.6-323.6,357.4z"/>
	</g>
</g>
<g>
	<path class="st0" d="M-91.8,360.4c0-5.5,1.6-10.6,4.4-14.9c-12.6-11.9-29.6-19.2-48.4-19.2c-39.1,0-70.7,31.7-70.7,70.7
		s31.6,70.7,70.7,70.7S-65.2,436-65.2,397c0-3-0.2-6-0.6-8.9C-80.3,387.2-91.8,375.1-91.8,360.4z"/>
	<g>
		<circle class="st3" cx="-64.1" cy="360.4" r="20.8"/>
		<path class="st0" d="M-55.3,357.4c0-0.3-0.1-0.6-0.3-0.8l-1.5-1.5c-0.2-0.2-0.5-0.3-0.8-0.3s-0.6,0.1-0.8,0.3l-7.4,7.3l-3.3-3.3
			c-0.2-0.2-0.5-0.3-0.8-0.3s-0.6,0.1-0.8,0.3l-1.5,1.5c-0.2,0.2-0.3,0.5-0.3,0.8c0,0.3,0.1,0.6,0.3,0.8l4.1,4l1.5,1.5
			c0.2,0.2,0.5,0.3,0.8,0.3s0.6-0.1,0.8-0.3l1.5-1.5l8.2-8.1C-55.5,357.9-55.3,357.6-55.3,357.4z"/>
	</g>
	<g>
		<path class="st2" d="M-102.7,405.3c0,0.6-0.6,1.2-1.2,1.2h-61.8c-0.7,0-1.2-0.6-1.2-1.2v-31.7c0-0.6,0.6-1.2,1.2-1.2h61.8
			c0.7,0,1.2,0.6,1.2,1.2C-102.7,373.6-102.7,405.3-102.7,405.3z M-97.8,373.6c0-3.4-2.8-6.1-6.2-6.1h-61.7c-3.4,0-6.2,2.7-6.2,6.1
			v41.5c0,3.4,2.8,6.1,6.2,6.1h21c0,3.3-2.5,5.9-2.5,7.3c0,1.3,1.1,2.4,2.5,2.4h19.8c1.4,0,2.5-1.1,2.5-2.4c0-1.3-2.5-4.1-2.5-7.3
			h21c3.4,0,6.2-2.7,6.2-6.1v-41.5H-97.8z"/>
		<path class="st2" d="M-118,386.5c-0.1,2.5,0.2,4.9-3.1,9.2c-3.5,4.6-6.2,4.5-6.9,4.6c-3.9,0.4-4.6-3.1-6.9-3.1
			c-2,0-3.2,3.4-6.1,3.1c-0.6-0.1-4.2,0-7.7-4.6c-3.2-4.3-2.9-6.7-3.1-9.2c-0.1-2.5-0.8-5.3-0.8-5.3s1.8,1.4,3.8,1.5
			s1.9-1.1,6.1-2.3c4.6-1.3,7.7,4.6,7.7,4.6s3.4-5.8,7.7-4.6c4.2,1.2,4.1,2.4,6.1,2.3s3.8-1.5,3.8-1.5S-117.9,384-118,386.5z
			 M-141.7,387c-2.3-0.5-3.1-0.2-4.6,0.3c-1.6,0.5-0.9,0.3-2.3,0.8c0,0,0.5,1.8,3.1,3.1c2.5,1.2,7.7,0.8,7.7,0.8
			S-137.2,387.9-141.7,387z M-123.4,387.2c-1.7-0.4-2-0.6-4.6,0c-4.5,1-3.8,4.6-3.8,4.6s5.1,0.5,7.7-0.8c2.5-1.2,3.1-3.1,3.1-3.1
			S-122.3,387.5-123.4,387.2z"/>
	</g>
	<g>
		<g>
			<defs>
				<path id="SVGID_1_" d="M-91.8,360.4c0-5.5,1.6-10.6,4.4-14.9c-12.6-11.9-29.6-19.2-48.4-19.2c-39.1,0-70.7,31.7-70.7,70.7
					s31.6,70.7,70.7,70.7S-65.2,436-65.2,397c0-3-0.2-6-0.6-8.9C-80.3,387.2-91.8,375.1-91.8,360.4z"/>
			</defs>
			<clipPath id="SVGID_2_">
				<use xlink:href="#SVGID_1_"  style="overflow:visible;"/>
			</clipPath>
			<path class="st4" d="M-194,412.2c0,1.6-1.3,2.9-2.9,2.9c-1.6,0-2.9-1.3-2.9-2.9s1.3-2.9,2.9-2.9
				C-195.3,409.3-194,410.6-194,412.2z M-186.5,406.5c0,0.6-0.5,1.1-1.2,1.1h-18.5c-0.6,0-1.2-0.5-1.2-1.1v-25.2
				c0-0.6,0.5-1.1,1.2-1.1h18.5c0.6,0,1.2,0.5,1.2,1.1V406.5z M-193.5,376.2c0,0.3-0.3,0.6-0.6,0.6h-5.8c-0.3,0-0.6-0.2-0.6-0.6
				c0-0.3,0.3-0.6,0.6-0.6h5.9C-193.7,375.6-193.5,375.9-193.5,376.2z M-183,375.6c0-2.5-2.1-4.6-4.6-4.6h-18.6
				c-2.5,0-4.6,2.1-4.6,4.6v36.6c0,2.5,2.1,4.6,4.6,4.6h18.5c2.5,0,4.6-2.1,4.6-4.6v-36.6H-183z"/>
		</g>
		<g>
			<defs>
				<path id="SVGID_3_" d="M-91.8,360.4c0-5.5,1.6-10.6,4.4-14.9c-12.6-11.9-29.6-19.2-48.4-19.2c-39.1,0-70.7,31.7-70.7,70.7
					s31.6,70.7,70.7,70.7S-65.2,436-65.2,397c0-3-0.2-6-0.6-8.9C-80.3,387.2-91.8,375.1-91.8,360.4z"/>
			</defs>
			<clipPath id="SVGID_4_">
				<use xlink:href="#SVGID_3_"  style="overflow:visible;"/>
			</clipPath>
			<g class="st5">
				<path class="st1" d="M-60.6,415.6c0,1.4-1.2,2.5-2.5,2.5c-1.4,0-2.5-1.1-2.5-2.5c0-1.4,1.2-2.5,2.5-2.5S-60.6,414.2-60.6,415.6z
					 M-45.4,409.3c0,0.7-0.6,1.3-1.3,1.3h-33.1c-0.7,0-1.3-0.6-1.3-1.3v-37.7c0-0.7,0.6-1.3,1.3-1.3h33.1c0.7,0,1.3,0.6,1.3,1.3
					L-45.4,409.3L-45.4,409.3z M-40.3,371.6c0-3.5-2.9-6.3-6.4-6.3h-33.1c-3.5,0-6.4,2.8-6.4,6.3v42.7c0,3.5,2.9,6.3,6.4,6.3h33.1
					c3.5,0,6.4-2.8,6.4-6.3L-40.3,371.6L-40.3,371.6z"/>
			</g>
		</g>
	</g>
</g>
<g>
	<path class="st0" d="M219.5,360.4c0-5.5,1.6-10.6,4.4-14.9c-12.6-11.9-29.6-19.2-48.4-19.2c-39,0-70.7,31.6-70.7,70.7
		s31.6,70.7,70.7,70.7s70.7-31.7,70.7-70.7c0-3-0.2-6-0.6-8.9C231.1,387.2,219.5,375.1,219.5,360.4z"/>
	<g>
		<circle class="st3" cx="247.3" cy="360.4" r="20.8"/>
		<path class="st0" d="M256,357.4c0-0.3-0.1-0.6-0.3-0.8l-1.5-1.5c-0.2-0.2-0.5-0.3-0.8-0.3s-0.6,0.1-0.8,0.3l-7.4,7.3l-3.3-3.3
			c-0.2-0.2-0.5-0.3-0.8-0.3s-0.6,0.1-0.8,0.3l-1.5,1.5c-0.2,0.2-0.3,0.5-0.3,0.8c0,0.3,0.1,0.6,0.3,0.8l4.1,4l1.5,1.5
			c0.2,0.2,0.5,0.3,0.8,0.3s0.6-0.1,0.8-0.3l1.5-1.5l8.2-8.1C255.9,357.9,256,357.6,256,357.4z"/>
	</g>
	<g>
		<path class="st1" d="M137.5,404h73.9v16.7h-73.9V404z"/>
		<path class="st2" d="M211.5,415.2c-4,0-6.2-1.8-7.9-3.3c-1.4-1.2-2.4-2-4.4-2c-2.1,0-3.1,0.8-4.5,2c-1.7,1.4-3.8,3.3-7.9,3.3
			c-4,0-6.2-1.8-7.9-3.3c-1.4-1.2-2.4-2-4.5-2s-3,0.8-4.4,2c-1.7,1.4-3.8,3.3-7.9,3.3s-6.2-1.8-7.9-3.3c-1.4-1.2-2.4-2-4.5-2
			s-3.1,0.8-4.5,2c-1.7,1.4-3.8,3.3-7.9,3.3v15.9h73.9v-15.9H211.5z M211.5,402c0-4.4-3.5-7.9-7.9-7.9H201v-18.6h-10.6V394h-10.6
			v-18.5h-10.6V394h-10.6v-18.5H148V394h-2.6c-4.4,0-7.9,3.6-7.9,7.9v7.9c2.1,0,3.1-0.8,4.5-2c1.7-1.4,3.8-3.3,7.9-3.3
			c4,0,6.2,1.8,7.9,3.3c1.4,1.2,2.4,2,4.5,2s3-0.8,4.4-2c1.7-1.4,3.8-3.3,7.9-3.3s6.2,1.8,7.9,3.3c1.4,1.2,2.4,2,4.5,2s3-0.8,4.5-2
			c1.7-1.4,3.8-3.3,7.9-3.3c4,0,6.1,1.8,7.8,3.3c1.4,1.2,2.4,2,4.5,2V402H211.5z"/>
		<path class="st1" d="M158.7,366c0-4.4-3.3-9.3-5.3-9.3c0,6.8-5.3,5.5-5.3,10.6c0,2.9,2.4,5.3,5.3,5.3
			C156.3,372.6,158.7,370.4,158.7,366z M179.8,366c0-4.4-3.3-9.3-5.3-9.3c0,6.8-5.3,5.5-5.3,10.6c0,2.9,2.4,5.3,5.3,5.3
			S179.8,370.4,179.8,366z M200.9,366c0-4.4-3.3-9.3-5.3-9.3c0,6.8-5.3,5.5-5.3,10.6c0,2.9,2.4,5.3,5.3,5.3S200.9,370.4,200.9,366z"
			/>
	</g>
</g>
</svg>
