<?xml version="1.0" encoding="utf-8"?>
<!-- Generator: Adobe Illustrator 19.0.0, SVG Export Plug-In . SVG Version: 6.00 Build 0)  -->
<svg version="1.1" id="Layer_1" xmlns="http://www.w3.org/2000/svg" xmlns:xlink="http://www.w3.org/1999/xlink" x="0px" y="0px"
	 viewBox="-207.5 304.5 710 185" style="enable-background:new -207.5 304.5 710 185;" xml:space="preserve">
<style type="text/css">
	.st0{fill:#BEE1F5;}
	.st1{fill:#652562;}
	.st2{clip-path:url(#SVGID_2_);fill:#652562;}
</style>
<circle class="st0" cx="-115" cy="397" r="92.5"/>
<path class="st1" d="M-58.4,386.5c-0.5,8.3,0.6,16.4-10.3,30.8c-11.6,15.3-21,15.1-23.1,15.4c-13.1,1.4-15.5-10.3-23.1-10.3
	c-6.7,0-10.8,11.6-20.6,10.3c-2.2-0.3-14.1-0.1-25.7-15.4c-10.9-14.3-9.8-22.4-10.3-30.8c-0.5-8.3-2.6-17.9-2.6-17.9
	s6.1,4.7,12.9,5.1c6.8,0.5,6.3-3.6,20.6-7.7c15.3-4.5,25.6,15.3,25.6,15.3s11.4-19.5,25.7-15.4c14.3,4.2,13.8,8.2,20.6,7.7
	s12.9-5.1,12.9-5.1S-58,378.1-58.4,386.5z M-138,388.2c-7.6-1.6-10.4-0.7-15.6,0.9c-5.3,1.6-3.1,0.9-7.7,2.6c0,0,1.8,6.1,10.3,10.3
	s25.7,2.6,25.7,2.6S-123,391.3-138,388.2z M-76.4,389c-5.7-1.4-6.8-2-15.4,0c-15,3.4-12.9,15.4-12.9,15.4s17.2,1.6,25.7-2.6
	c8.5-4.2,10.3-10.3,10.3-10.3S-72.8,389.9-76.4,389z"/>
<path class="st0" d="M423,305l78.5,12.7c0.6,0.1,1,0.5,1,0.9c0.1,29.9-0.4,52.8-1.4,62.7c-4,41-12,57.7-27.4,77.5
	c-17.9,23-44.1,29-50.7,30.2c-6.7-1.2-32.9-7.2-50.7-30.2c-15.4-19.8-23.5-36.5-27.4-77.5c-1-9.9-1.4-32.7-1.4-62.7L423,305z"/>
<g>
	<g>
		<defs>
			<path id="SVGID_1_" d="M423,305l78.5,12.7c0.6,0.1,1,0.5,1,0.9c0.1,29.9-0.4,52.8-1.4,62.7c-4,41-12,57.7-27.4,77.5
				c-17.9,23-44.1,29-50.7,30.2c-6.7-1.2-32.9-7.2-50.7-30.2c-15.4-19.8-23.5-36.5-27.4-77.5c-1-9.9-1.4-32.7-1.4-62.7L423,305z"/>
		</defs>
		<clipPath id="SVGID_2_">
			<use xlink:href="#SVGID_1_"  style="overflow:visible;"/>
		</clipPath>
		<path class="st2" d="M446,353.7c1.1,4.6,1.2,5,1.1,9.8c0,1.8-1,10.3-0.8,13c0.2,2.2,0.7,2.3,1.5,4.1c1.4,3.1,0.9,7.3,0.4,10.5
			c-0.3,1.7-0.9,4.1-1.9,5.5c-1,1.5-3.1,1.5-4.1,3.3c-1.3,2.6-0.6,6.2-1.4,9c-1,3.2-3.4,3.4-3.6,7.5c1.2,0.2,2.4,0.4,3.6,0.5
			c1.2,2.7,3.4,8,5.6,9.6c1.9,0.5,3.7,1.1,5.6,1.6c6.6,2.8,13.8,6.2,20.4,9.1c6,2.6,13.6,5.7,17.4,9.5c0,4.5,0,47.8,0,47.8H356
			c0,0,0-43.3,0-47.8c3.8-3.9,11.4-6.9,17.4-9.5c6.6-2.9,13.9-6.3,20.4-9.1c1.9-0.5,3.7-1.1,5.6-1.6c2.2-1.6,4.4-7,5.6-9.6l2.7-0.7
			c-0.6-3.5-2.7-3.8-3.5-6.3c-0.3-3.7-0.7-7.5-1-11.2c0,0.2-2.4-0.5-2.8-0.7c-3.5-2.3-3.5-11.5-3.9-15.4c-0.2-1.8,2.2-3.2,1.5-6.4
			c-3.8-18.9,1.6-27.7,10.2-30.7c6-2.5,17.1-7.2,27.5-0.5l2.6,2.5l4.2,0.8C444.7,349.5,446,353.7,446,353.7z"/>
	</g>
</g>
</svg>
