<?xml version="1.0" encoding="UTF-8"?>
<!-- Generator: Adobe Illustrator 18.1.1, SVG Export Plug-In . SVG Version: 6.00 Build 0)  -->
<svg version="1.1" id="cloud_2_" xmlns="http://www.w3.org/2000/svg" xmlns:xlink="http://www.w3.org/1999/xlink" x="0px" y="0px" viewBox="0 0 120 80" enable-background="new 0 0 120 80" xml:space="preserve">
<g id="cloud_1_">
	<path id="cloud" fill="#FFFFFF" d="M101,38l-1.6-0.5l0.6-1.5c0.8-1.8,1.1-3.7,1.1-5.7c0-8.2-6.6-14.8-14.8-14.8   c-2.9,0-5.7,0.8-8.1,2.4l-1.5,1L76,17.2c-2.9-7.1-9.6-11.6-17.3-11.6c-9.4,0-17.3,7-18.5,16.4L40,24.2l-2-1.1c-1.8-1-3.9-1.6-6-1.6   C25.4,21.5,20,27,20,33.6c0,0.8,0.1,1.7,0.3,2.5l0.3,1.4l-1.3,0.4c-7.9,2.3-13.4,9.7-13.4,17.9c0,10.3,8.4,18.6,18.6,18.6h71.1   c10.3,0,18.6-8.4,18.6-18.6C114.2,47.5,108.9,40.4,101,38z"/>
	<path id="outline" fill="#CCCCCC" d="M103.3,35.6c0.5-1.7,0.8-3.5,0.8-5.3c0-9.8-8-17.8-17.8-17.8c-2.9,0-5.7,0.7-8.3,2   C74.5,7.2,67,2.6,58.8,2.6c-10.2,0-19,7.2-21.1,17c-1.8-0.7-3.6-1.1-5.6-1.1c-8.3,0-15.1,6.8-15.1,15.1c0,0.6,0,1.2,0.1,1.8   C8.6,38.5,2.8,46.7,2.8,55.8c0,11.9,9.7,21.6,21.6,21.6h71.1c11.9,0,21.6-9.7,21.6-21.6C117.2,46.7,111.7,38.8,103.3,35.6z    M24.5,74.4C14.2,74.4,5.8,66,5.8,55.8c0-8.2,5.5-15.6,13.4-17.9l1.3-0.4l-0.3-1.4c-0.2-0.8-0.3-1.7-0.3-2.5   c0-6.7,5.4-12.1,12.1-12.1c2.1,0,4.1,0.5,6,1.6l2,1.1l0.3-2.2c1.1-9.3,9.1-16.4,18.5-16.4c7.6,0,14.4,4.6,17.3,11.6l0.7,1.7l1.5-1   c2.4-1.6,5.2-2.4,8.1-2.4c8.2,0,14.8,6.6,14.8,14.8c0,2-0.4,3.9-1.1,5.7l-0.6,1.5L101,38c7.9,2.4,13.2,9.6,13.2,17.8   c0,10.3-8.4,18.6-18.6,18.6H24.5z"/>
	<g id="sync">
		<g>
			<path fill-rule="evenodd" clip-rule="evenodd" fill="#0098D7" d="M69,29.1c-0.9,0.4-2.6,1.4-3.8,3.3c-0.8,1.3-1.5,2.7-2,3.8     c2.3,0.7,4.4,2.2,5.8,4.3c1.2,1.9,1.8,4.1,1.6,6.5c-0.4,3.5-2.7,6.7-6,8.5c-1.4-1.5-2.7-4.6-2.7-4.6s-0.7,3.4-2.4,6.9     c-1.1,2.3-2.8,4.6-4.9,6.2c2.8,1,5.7,1.4,8.4,1.4l0,0.1c0.1,0,0.2,0,0.3-0.1c5.9,0,10.5-1.5,10.5-1.5s-1.5-0.7-2.6-1.7     c3.6-2.1,6.1-5.4,7.1-9.1c0.6-1.5,0.9-3,1.1-4.7C80.4,40.2,76,32.6,69,29.1z M57.5,56.4c-4.5-1.1-7.8-4.9-8.2-9.5     c-0.1-3.9,2.3-7.7,6-9.7c1.4,1.5,2.7,4.6,2.7,4.6s2-9.2,7.3-13.1c-9.9-4-19.2,0.1-19.2,0.1s1.5,0.6,2.6,1.7     c-0.3,0.2-0.5,0.4-0.8,0.6c-2.8,1.9-4.9,4.6-5.9,7.6c-0.8,1.7-1.3,3.6-1.5,5.6C39.6,52.3,44,59.8,51,63.4     c1.1-0.8,2.4-1.8,3.8-3.2C55.9,59.1,56.8,57.7,57.5,56.4z"/>
		</g>
	</g>
</g>
</svg>